<svg width="137" height="35" viewBox="0 0 137 35" fill="none" xmlns="http://www.w3.org/2000/svg">
<path d="M69.0332 6.51392L64.5097 20.9162L60.0905 6.51392H56.4618L52.0309 20.9609L47.5141 6.51392H43.2139L50.3489 28.5094H53.6269L58.2596 13.4306L62.9203 28.5094H66.1686L73.3317 6.51392H69.0332Z" fill="white"/>
<path d="M79.3237 12.9753H75.0781V28.5089H79.3237V12.9753Z" fill="white"/>
<path d="M85.3359 28.5093H89.5501V6.51221H85.3359V28.5093ZM81.6973 16.6739H93.1788V12.9757H81.7039L81.6973 16.6739Z" fill="white"/>
<path d="M109.456 15.5492C108.952 14.6589 108.213 13.9243 107.32 13.4256C106.352 12.9182 105.277 12.6531 104.185 12.6531C103.092 12.6531 102.017 12.9182 101.05 13.4256C100.154 13.9286 99.4131 14.6685 98.9094 15.5641C98.3781 16.5456 98.1125 17.6487 98.1386 18.7644L99.7777 19.6013C99.7658 19.0282 99.9044 18.4619 100.18 17.959C100.438 17.4975 100.822 17.1189 101.288 16.8674C101.782 16.6049 102.335 16.4724 102.895 16.482C103.818 16.482 104.569 16.7715 105.148 17.3503C105.725 17.9276 106.016 18.6735 106.016 19.6013V28.5093H110.23V18.6669C110.252 17.5775 109.985 16.5019 109.456 15.5492ZM95.5635 28.5093H99.7777V6.51221H95.5635V28.5093Z" fill="white"/>
<path d="M117.852 6.51221H113.64V28.511H117.852V6.51221Z" fill="white"/>
<path d="M126.889 25.0026L125.863 27.1726L122.16 35.0006H126.626L129.454 28.633L126.889 25.0026ZM131.778 12.9753L128.091 22.8344L124.542 12.9753H119.974L125.863 27.1726L126.472 28.638H129.461L136.377 12.9753H131.778Z" fill="white"/>
<path d="M79.3237 6.52625H75.0781V10.7719H79.3237V6.52625Z" fill="white"/>
<path d="M29.9148 0.000732819C29.1343 0.00108315 28.3714 0.232858 27.7225 0.666758C27.0737 1.10066 26.5681 1.7172 26.2697 2.43842C25.9712 3.15965 25.8933 3.95318 26.0458 4.71868C26.1983 5.48418 26.5743 6.18727 27.1264 6.73907C27.6784 7.29087 28.3817 7.6666 29.1472 7.81875C29.9128 7.97089 30.7063 7.89263 31.4274 7.59385C32.1485 7.29507 32.7648 6.78919 33.1984 6.14017C33.632 5.49115 33.8634 4.72813 33.8634 3.94759C33.8634 3.42914 33.7613 2.91576 33.5628 2.43678C33.3644 1.95781 33.0735 1.52264 32.7068 1.15612C32.3401 0.789592 31.9048 0.498904 31.4258 0.30066C30.9467 0.102416 30.4333 0.000500118 29.9148 0.000732819Z" fill="white"/>
<path d="M3.94509 0.000732819C3.16455 0.00108315 2.40164 0.232858 1.75281 0.666758C1.10399 1.10066 0.598382 1.7172 0.299925 2.43842C0.0014685 3.15965 -0.076433 3.95318 0.0760575 4.71868C0.228548 5.48418 0.604586 6.18727 1.15664 6.73907C1.70868 7.29087 2.41196 7.6666 3.17752 7.81875C3.94309 7.97089 4.73658 7.89263 5.45767 7.59385C6.17876 7.29507 6.79508 6.78919 7.22868 6.14017C7.66229 5.49115 7.89372 4.72813 7.89372 3.94759C7.89372 3.42914 7.79157 2.91576 7.59311 2.43678C7.39465 1.95781 7.10377 1.52264 6.73708 1.15612C6.37039 0.789592 5.93509 0.498904 5.45603 0.30066C4.97698 0.102416 4.46354 0.000500118 3.94509 0.000732819Z" fill="white"/>
<path d="M5.0241 27.3062L4.24465 26.1193C3.51159 25.0637 2.85051 23.9599 2.26591 22.8155C1.44748 21.2211 -0.460404 17.4071 0.10647 14.4718C0.225073 13.7477 0.509413 13.0608 0.937295 12.4647C1.26893 12.0133 1.70145 11.6457 2.20036 11.3912C2.62636 11.1995 3.08841 11.1011 3.55555 11.1024C4.13001 11.1193 4.69322 11.2658 5.20303 11.5311C5.7575 11.8146 6.10826 12.1511 6.67867 12.7216C7.20193 13.2491 7.67627 13.8231 8.09586 14.4364C9.44041 16.3708 10.7531 18.5108 11.219 19.269C11.1428 20.0679 10.8186 22.5639 9.01526 24.7145C7.98589 25.9714 6.5911 26.8772 5.0241 27.3062Z" fill="white"/>
<path d="M28.8437 27.3044C29.1036 26.9088 29.3634 26.5131 29.6232 26.1175C30.3547 25.0626 31.014 23.9594 31.5966 22.8155C32.415 21.2211 34.3229 17.4071 33.7561 14.47C33.6371 13.7466 33.3527 13.0603 32.9252 12.4647C32.5942 12.0128 32.1615 11.6451 31.6622 11.3912C31.2362 11.1995 30.7741 11.1011 30.307 11.1024C29.7324 11.1183 29.169 11.2649 28.6595 11.5311C28.105 11.8146 27.7543 12.1511 27.1839 12.7216C26.6602 13.2487 26.1858 13.8227 25.7667 14.4364C24.4221 16.369 23.1095 18.5108 22.6436 19.269C22.7197 20.0679 23.0439 22.5639 24.8473 24.7145C25.8786 25.9714 27.2752 26.8764 28.8437 27.3044Z" fill="white"/>
<path d="M16.9285 3.97592e-07C16.148 0.00035073 15.385 0.232126 14.7362 0.666025C14.0874 1.09992 13.5818 1.71647 13.2833 2.43769C12.9849 3.15892 12.907 3.95244 13.0595 4.71794C13.2119 5.48344 13.588 6.18654 14.14 6.73834C14.6921 7.29014 15.3954 7.66587 16.1609 7.81801C16.9265 7.97016 17.72 7.89189 18.4411 7.59311C19.1622 7.29433 19.7785 6.78846 20.2121 6.13944C20.6457 5.49042 20.8771 4.7274 20.8771 3.94686C20.8771 3.4284 20.775 2.91502 20.5765 2.43605C20.3781 1.95708 20.0872 1.52191 19.7205 1.15538C19.3538 0.78886 18.9185 0.498171 18.4394 0.299927C17.9604 0.101683 17.447 -0.000232304 16.9285 3.97592e-07Z" fill="#A7EA7B"/>
<path d="M16.9293 23.7683L18.0631 26.1882C19.2198 28.6558 20.6246 30.3653 22.2384 31.2688C22.6695 31.5179 23.1578 31.651 23.6556 31.655C25.0161 31.655 27.0356 30.5496 29.6432 26.0996H29.6167C29.2948 26.182 28.964 26.2248 28.6317 26.2271C27.2287 26.2271 26.0223 25.4441 25.0445 23.8994C24.6639 23.2837 24.3583 22.6248 24.1339 21.9366L22.1747 16.1793C21.4661 14.213 20.5343 12.7763 19.4147 11.9366C18.7032 11.3907 17.8314 11.0948 16.9346 11.0948C16.0378 11.0948 15.1661 11.3907 14.4546 11.9366C13.335 12.7763 12.4032 14.2147 11.684 16.2059L9.73533 21.9366C9.51083 22.6307 9.20332 23.2951 8.81947 23.9154C7.84339 25.4601 6.63701 26.2431 5.234 26.2431C4.90171 26.2409 4.57094 26.1981 4.24905 26.1155H4.2207C6.8301 30.5655 8.84782 31.6709 10.2101 31.6709C10.7084 31.6652 11.1967 31.5303 11.6273 31.2794C13.234 30.3813 14.6388 28.6718 15.7956 26.2041L16.9293 23.7683Z" fill="#A7EA7B"/>
</svg>
